<mxfile host="Electron" modified="2023-11-05T15:34:54.708Z" agent="Mozilla/5.0 (Windows NT 10.0; Win64; x64) AppleWebKit/537.36 (KHTML, like Gecko) draw.io/22.0.3 Chrome/114.0.5735.289 Electron/25.8.4 Safari/537.36" etag="Bs9hpgvMCnT9xWmoNNhn" version="22.0.3" type="device">
  <diagram name="Page-1" id="-yDwzFIwpbd4lSM51VbQ">
    <mxGraphModel dx="1098" dy="828" grid="1" gridSize="10" guides="1" tooltips="1" connect="1" arrows="1" fold="1" page="1" pageScale="1" pageWidth="827" pageHeight="1169" math="0" shadow="0">
      <root>
        <mxCell id="0" />
        <mxCell id="1" parent="0" />
        <mxCell id="lGVW7OkiSaux8DdQ8_OI-69" value="" style="rounded=0;whiteSpace=wrap;html=1;" parent="1" vertex="1">
          <mxGeometry x="120" y="60" width="800" height="400" as="geometry" />
        </mxCell>
        <mxCell id="lGVW7OkiSaux8DdQ8_OI-47" value="" style="rounded=0;whiteSpace=wrap;html=1;fillColor=none;dashed=1;" parent="1" vertex="1">
          <mxGeometry x="603" y="110" width="287" height="150" as="geometry" />
        </mxCell>
        <mxCell id="lGVW7OkiSaux8DdQ8_OI-32" value="" style="rounded=0;whiteSpace=wrap;html=1;fillColor=none;dashed=1;" parent="1" vertex="1">
          <mxGeometry x="350" y="110" width="230" height="200" as="geometry" />
        </mxCell>
        <mxCell id="lGVW7OkiSaux8DdQ8_OI-5" style="edgeStyle=orthogonalEdgeStyle;rounded=0;orthogonalLoop=1;jettySize=auto;html=1;entryX=0.5;entryY=0;entryDx=0;entryDy=0;" parent="1" source="lGVW7OkiSaux8DdQ8_OI-1" target="lGVW7OkiSaux8DdQ8_OI-3" edge="1">
          <mxGeometry relative="1" as="geometry" />
        </mxCell>
        <mxCell id="lGVW7OkiSaux8DdQ8_OI-46" style="edgeStyle=orthogonalEdgeStyle;rounded=0;orthogonalLoop=1;jettySize=auto;html=1;entryX=0.5;entryY=0;entryDx=0;entryDy=0;" parent="1" source="lGVW7OkiSaux8DdQ8_OI-1" target="lGVW7OkiSaux8DdQ8_OI-4" edge="1">
          <mxGeometry relative="1" as="geometry" />
        </mxCell>
        <mxCell id="lGVW7OkiSaux8DdQ8_OI-1" value="App" style="rounded=1;whiteSpace=wrap;html=1;" parent="1" vertex="1">
          <mxGeometry x="174.5" y="120" width="100" height="30" as="geometry" />
        </mxCell>
        <mxCell id="lGVW7OkiSaux8DdQ8_OI-2" value="Overview" style="text;html=1;strokeColor=none;fillColor=none;align=center;verticalAlign=middle;whiteSpace=wrap;rounded=0;" parent="1" vertex="1">
          <mxGeometry x="194.5" y="80" width="60" height="30" as="geometry" />
        </mxCell>
        <mxCell id="lGVW7OkiSaux8DdQ8_OI-3" value="Dashboard" style="rounded=1;whiteSpace=wrap;html=1;" parent="1" vertex="1">
          <mxGeometry x="140" y="190" width="80" height="30" as="geometry" />
        </mxCell>
        <mxCell id="EkCQNFjqUWMNqkZWDKo--4" style="edgeStyle=orthogonalEdgeStyle;rounded=0;orthogonalLoop=1;jettySize=auto;html=1;entryX=0.5;entryY=0;entryDx=0;entryDy=0;" edge="1" parent="1" source="lGVW7OkiSaux8DdQ8_OI-4" target="EkCQNFjqUWMNqkZWDKo--2">
          <mxGeometry relative="1" as="geometry" />
        </mxCell>
        <mxCell id="EkCQNFjqUWMNqkZWDKo--5" style="edgeStyle=orthogonalEdgeStyle;rounded=0;orthogonalLoop=1;jettySize=auto;html=1;entryX=0.5;entryY=0;entryDx=0;entryDy=0;" edge="1" parent="1" source="lGVW7OkiSaux8DdQ8_OI-4" target="EkCQNFjqUWMNqkZWDKo--3">
          <mxGeometry relative="1" as="geometry" />
        </mxCell>
        <mxCell id="lGVW7OkiSaux8DdQ8_OI-4" value="Food" style="rounded=1;whiteSpace=wrap;html=1;" parent="1" vertex="1">
          <mxGeometry x="234.5" y="190" width="75" height="30" as="geometry" />
        </mxCell>
        <mxCell id="lGVW7OkiSaux8DdQ8_OI-7" value="Dashboard" style="text;html=1;strokeColor=none;fillColor=none;align=center;verticalAlign=middle;whiteSpace=wrap;rounded=0;" parent="1" vertex="1">
          <mxGeometry x="435" y="80" width="60" height="30" as="geometry" />
        </mxCell>
        <mxCell id="lGVW7OkiSaux8DdQ8_OI-14" style="edgeStyle=orthogonalEdgeStyle;rounded=0;orthogonalLoop=1;jettySize=auto;html=1;entryX=0.5;entryY=0;entryDx=0;entryDy=0;fontSize=8;" parent="1" source="lGVW7OkiSaux8DdQ8_OI-8" target="lGVW7OkiSaux8DdQ8_OI-13" edge="1">
          <mxGeometry relative="1" as="geometry" />
        </mxCell>
        <mxCell id="lGVW7OkiSaux8DdQ8_OI-8" value="Dashboard" style="rounded=1;whiteSpace=wrap;html=1;fontSize=12;" parent="1" vertex="1">
          <mxGeometry x="425" y="120" width="80" height="30" as="geometry" />
        </mxCell>
        <mxCell id="lGVW7OkiSaux8DdQ8_OI-10" value="&lt;font style=&quot;font-size: 8px;&quot;&gt;Dashboard Header&lt;/font&gt;" style="rounded=1;whiteSpace=wrap;html=1;fontSize=8;" parent="1" vertex="1">
          <mxGeometry x="375" y="200" width="50" height="20" as="geometry" />
        </mxCell>
        <mxCell id="lGVW7OkiSaux8DdQ8_OI-12" value="" style="endArrow=classic;html=1;rounded=0;entryX=0.5;entryY=0;entryDx=0;entryDy=0;exitX=0.5;exitY=1;exitDx=0;exitDy=0;fontSize=8;" parent="1" source="lGVW7OkiSaux8DdQ8_OI-8" target="lGVW7OkiSaux8DdQ8_OI-10" edge="1">
          <mxGeometry width="50" height="50" relative="1" as="geometry">
            <mxPoint x="431" y="220" as="sourcePoint" />
            <mxPoint x="481" y="170" as="targetPoint" />
            <Array as="points">
              <mxPoint x="401" y="180" />
            </Array>
          </mxGeometry>
        </mxCell>
        <mxCell id="lGVW7OkiSaux8DdQ8_OI-13" value="&lt;font style=&quot;font-size: 8px;&quot;&gt;FoodView&lt;/font&gt;" style="rounded=1;whiteSpace=wrap;html=1;fontSize=8;" parent="1" vertex="1">
          <mxGeometry x="440" y="200" width="50" height="20" as="geometry" />
        </mxCell>
        <mxCell id="lGVW7OkiSaux8DdQ8_OI-15" value="&lt;font style=&quot;font-size: 8px;&quot;&gt;Dashboard Buttons&lt;/font&gt;" style="rounded=1;whiteSpace=wrap;html=1;fontSize=8;" parent="1" vertex="1">
          <mxGeometry x="505" y="200" width="50" height="20" as="geometry" />
        </mxCell>
        <mxCell id="lGVW7OkiSaux8DdQ8_OI-16" value="" style="endArrow=classic;html=1;rounded=0;entryX=0.5;entryY=0;entryDx=0;entryDy=0;exitX=0.5;exitY=1;exitDx=0;exitDy=0;fontSize=8;" parent="1" source="lGVW7OkiSaux8DdQ8_OI-8" target="lGVW7OkiSaux8DdQ8_OI-15" edge="1">
          <mxGeometry width="50" height="50" relative="1" as="geometry">
            <mxPoint x="475" y="160" as="sourcePoint" />
            <mxPoint x="410" y="210" as="targetPoint" />
            <Array as="points">
              <mxPoint x="531" y="180" />
            </Array>
          </mxGeometry>
        </mxCell>
        <mxCell id="lGVW7OkiSaux8DdQ8_OI-19" value="&lt;font style=&quot;font-size: 8px;&quot;&gt;DateSelector&lt;/font&gt;" style="rounded=1;whiteSpace=wrap;html=1;fontSize=8;" parent="1" vertex="1">
          <mxGeometry x="370.25" y="266.25" width="59.5" height="22.5" as="geometry" />
        </mxCell>
        <mxCell id="lGVW7OkiSaux8DdQ8_OI-22" value="" style="endArrow=classic;html=1;rounded=0;exitX=0.5;exitY=1;exitDx=0;exitDy=0;entryX=0.5;entryY=0;entryDx=0;entryDy=0;fontSize=8;" parent="1" source="lGVW7OkiSaux8DdQ8_OI-10" target="lGVW7OkiSaux8DdQ8_OI-19" edge="1">
          <mxGeometry width="50" height="50" relative="1" as="geometry">
            <mxPoint x="481" y="260" as="sourcePoint" />
            <mxPoint x="531" y="210" as="targetPoint" />
          </mxGeometry>
        </mxCell>
        <mxCell id="lGVW7OkiSaux8DdQ8_OI-30" value="AddFood" style="text;html=1;strokeColor=none;fillColor=none;align=center;verticalAlign=middle;whiteSpace=wrap;rounded=0;" parent="1" vertex="1">
          <mxGeometry x="715" y="80" width="60" height="30" as="geometry" />
        </mxCell>
        <mxCell id="lGVW7OkiSaux8DdQ8_OI-31" value="AddFood" style="rounded=1;whiteSpace=wrap;html=1;" parent="1" vertex="1">
          <mxGeometry x="705" y="142" width="80" height="30" as="geometry" />
        </mxCell>
        <mxCell id="lGVW7OkiSaux8DdQ8_OI-38" value="&lt;font style=&quot;font-size: 8px;&quot;&gt;Food List&lt;/font&gt;" style="rounded=1;whiteSpace=wrap;html=1;fontSize=8;" parent="1" vertex="1">
          <mxGeometry x="443.25" y="268.75" width="43.5" height="20" as="geometry" />
        </mxCell>
        <mxCell id="lGVW7OkiSaux8DdQ8_OI-48" value="&lt;font style=&quot;font-size: 8px;&quot;&gt;FoodHeader&lt;/font&gt;" style="rounded=1;whiteSpace=wrap;html=1;fontSize=8;" parent="1" vertex="1">
          <mxGeometry x="625" y="220" width="50" height="20" as="geometry" />
        </mxCell>
        <mxCell id="lGVW7OkiSaux8DdQ8_OI-49" value="" style="endArrow=classic;html=1;rounded=0;entryX=0.5;entryY=0;entryDx=0;entryDy=0;exitX=0.5;exitY=1;exitDx=0;exitDy=0;fontSize=8;" parent="1" source="lGVW7OkiSaux8DdQ8_OI-31" target="lGVW7OkiSaux8DdQ8_OI-48" edge="1">
          <mxGeometry width="50" height="50" relative="1" as="geometry">
            <mxPoint x="747" y="172" as="sourcePoint" />
            <mxPoint x="763" y="192" as="targetPoint" />
            <Array as="points">
              <mxPoint x="650" y="186" />
            </Array>
          </mxGeometry>
        </mxCell>
        <mxCell id="lGVW7OkiSaux8DdQ8_OI-52" value="ImageView" style="rounded=1;whiteSpace=wrap;html=1;fontSize=8;" parent="1" vertex="1">
          <mxGeometry x="750" y="220" width="50" height="20" as="geometry" />
        </mxCell>
        <mxCell id="lGVW7OkiSaux8DdQ8_OI-55" value="&lt;font style=&quot;font-size: 8px;&quot;&gt;FoodActionButtons&lt;/font&gt;" style="rounded=1;whiteSpace=wrap;html=1;fontSize=8;" parent="1" vertex="1">
          <mxGeometry x="808" y="220" width="75" height="20" as="geometry" />
        </mxCell>
        <mxCell id="lGVW7OkiSaux8DdQ8_OI-56" value="" style="endArrow=classic;html=1;rounded=0;exitX=0.5;exitY=1;exitDx=0;exitDy=0;entryX=0.5;entryY=0;entryDx=0;entryDy=0;" parent="1" source="lGVW7OkiSaux8DdQ8_OI-31" target="lGVW7OkiSaux8DdQ8_OI-50" edge="1">
          <mxGeometry width="50" height="50" relative="1" as="geometry">
            <mxPoint x="620" y="252" as="sourcePoint" />
            <mxPoint x="670" y="202" as="targetPoint" />
            <Array as="points">
              <mxPoint x="713" y="192" />
            </Array>
          </mxGeometry>
        </mxCell>
        <mxCell id="lGVW7OkiSaux8DdQ8_OI-57" value="" style="endArrow=classic;html=1;rounded=0;exitX=0.5;exitY=1;exitDx=0;exitDy=0;entryX=0.5;entryY=0;entryDx=0;entryDy=0;" parent="1" source="lGVW7OkiSaux8DdQ8_OI-31" target="lGVW7OkiSaux8DdQ8_OI-52" edge="1">
          <mxGeometry width="50" height="50" relative="1" as="geometry">
            <mxPoint x="755" y="182" as="sourcePoint" />
            <mxPoint x="738" y="232" as="targetPoint" />
            <Array as="points">
              <mxPoint x="775" y="192" />
            </Array>
          </mxGeometry>
        </mxCell>
        <mxCell id="lGVW7OkiSaux8DdQ8_OI-58" value="" style="endArrow=classic;html=1;rounded=0;exitX=0.5;exitY=1;exitDx=0;exitDy=0;entryX=0.5;entryY=0;entryDx=0;entryDy=0;" parent="1" source="lGVW7OkiSaux8DdQ8_OI-31" target="lGVW7OkiSaux8DdQ8_OI-55" edge="1">
          <mxGeometry width="50" height="50" relative="1" as="geometry">
            <mxPoint x="765" y="192" as="sourcePoint" />
            <mxPoint x="748" y="242" as="targetPoint" />
            <Array as="points">
              <mxPoint x="846" y="186" />
            </Array>
          </mxGeometry>
        </mxCell>
        <mxCell id="lGVW7OkiSaux8DdQ8_OI-50" value="&lt;font style=&quot;font-size: 8px;&quot;&gt;FoodFields&lt;/font&gt;" style="rounded=1;whiteSpace=wrap;html=1;fontSize=8;movable=1;resizable=1;rotatable=1;deletable=1;editable=1;locked=0;connectable=1;" parent="1" vertex="1">
          <mxGeometry x="688" y="220" width="50" height="20" as="geometry" />
        </mxCell>
        <mxCell id="3XvR2nqikhrRm-OZNU_D-8" value="" style="endArrow=classic;html=1;rounded=0;exitX=0.5;exitY=1;exitDx=0;exitDy=0;entryX=0.5;entryY=0;entryDx=0;entryDy=0;" parent="1" source="lGVW7OkiSaux8DdQ8_OI-13" target="lGVW7OkiSaux8DdQ8_OI-38" edge="1">
          <mxGeometry width="50" height="50" relative="1" as="geometry">
            <mxPoint x="491" y="287.5" as="sourcePoint" />
            <mxPoint x="530" y="340" as="targetPoint" />
          </mxGeometry>
        </mxCell>
        <mxCell id="3XvR2nqikhrRm-OZNU_D-10" value="&lt;font style=&quot;font-size: 8px;&quot;&gt;Multiple&lt;/font&gt;" style="text;html=1;strokeColor=none;fillColor=none;align=center;verticalAlign=middle;whiteSpace=wrap;rounded=0;" parent="1" vertex="1">
          <mxGeometry x="462" y="240" width="36.5" height="10" as="geometry" />
        </mxCell>
        <mxCell id="EkCQNFjqUWMNqkZWDKo--2" value="AddFood" style="rounded=1;whiteSpace=wrap;html=1;" vertex="1" parent="1">
          <mxGeometry x="194.5" y="259.5" width="62.5" height="36" as="geometry" />
        </mxCell>
        <mxCell id="EkCQNFjqUWMNqkZWDKo--3" value="EditFood" style="rounded=1;whiteSpace=wrap;html=1;" vertex="1" parent="1">
          <mxGeometry x="264.5" y="259.5" width="62.5" height="36" as="geometry" />
        </mxCell>
        <mxCell id="EkCQNFjqUWMNqkZWDKo--6" value="" style="rounded=0;whiteSpace=wrap;html=1;fillColor=none;dashed=1;" vertex="1" parent="1">
          <mxGeometry x="601.5" y="290" width="287" height="150" as="geometry" />
        </mxCell>
        <mxCell id="EkCQNFjqUWMNqkZWDKo--7" value="EditFood" style="text;html=1;strokeColor=none;fillColor=none;align=center;verticalAlign=middle;whiteSpace=wrap;rounded=0;" vertex="1" parent="1">
          <mxGeometry x="713.5" y="260" width="60" height="30" as="geometry" />
        </mxCell>
        <mxCell id="EkCQNFjqUWMNqkZWDKo--8" value="EditFood" style="rounded=1;whiteSpace=wrap;html=1;" vertex="1" parent="1">
          <mxGeometry x="703.5" y="322" width="80" height="30" as="geometry" />
        </mxCell>
        <mxCell id="EkCQNFjqUWMNqkZWDKo--9" value="&lt;font style=&quot;font-size: 8px;&quot;&gt;FoodHeader&lt;/font&gt;" style="rounded=1;whiteSpace=wrap;html=1;fontSize=8;" vertex="1" parent="1">
          <mxGeometry x="623.5" y="400" width="50" height="20" as="geometry" />
        </mxCell>
        <mxCell id="EkCQNFjqUWMNqkZWDKo--10" value="" style="endArrow=classic;html=1;rounded=0;entryX=0.5;entryY=0;entryDx=0;entryDy=0;exitX=0.5;exitY=1;exitDx=0;exitDy=0;fontSize=8;" edge="1" parent="1" source="EkCQNFjqUWMNqkZWDKo--8" target="EkCQNFjqUWMNqkZWDKo--9">
          <mxGeometry width="50" height="50" relative="1" as="geometry">
            <mxPoint x="745.5" y="352" as="sourcePoint" />
            <mxPoint x="761.5" y="372" as="targetPoint" />
            <Array as="points">
              <mxPoint x="648.5" y="366" />
            </Array>
          </mxGeometry>
        </mxCell>
        <mxCell id="EkCQNFjqUWMNqkZWDKo--11" value="ImageView" style="rounded=1;whiteSpace=wrap;html=1;fontSize=8;" vertex="1" parent="1">
          <mxGeometry x="748.5" y="400" width="50" height="20" as="geometry" />
        </mxCell>
        <mxCell id="EkCQNFjqUWMNqkZWDKo--12" value="&lt;font style=&quot;font-size: 8px;&quot;&gt;FoodActionButtons&lt;/font&gt;" style="rounded=1;whiteSpace=wrap;html=1;fontSize=8;" vertex="1" parent="1">
          <mxGeometry x="806.5" y="400" width="75" height="20" as="geometry" />
        </mxCell>
        <mxCell id="EkCQNFjqUWMNqkZWDKo--13" value="" style="endArrow=classic;html=1;rounded=0;exitX=0.5;exitY=1;exitDx=0;exitDy=0;entryX=0.5;entryY=0;entryDx=0;entryDy=0;" edge="1" parent="1" source="EkCQNFjqUWMNqkZWDKo--8" target="EkCQNFjqUWMNqkZWDKo--16">
          <mxGeometry width="50" height="50" relative="1" as="geometry">
            <mxPoint x="618.5" y="432" as="sourcePoint" />
            <mxPoint x="668.5" y="382" as="targetPoint" />
            <Array as="points">
              <mxPoint x="711.5" y="372" />
            </Array>
          </mxGeometry>
        </mxCell>
        <mxCell id="EkCQNFjqUWMNqkZWDKo--14" value="" style="endArrow=classic;html=1;rounded=0;exitX=0.5;exitY=1;exitDx=0;exitDy=0;entryX=0.5;entryY=0;entryDx=0;entryDy=0;" edge="1" parent="1" source="EkCQNFjqUWMNqkZWDKo--8" target="EkCQNFjqUWMNqkZWDKo--11">
          <mxGeometry width="50" height="50" relative="1" as="geometry">
            <mxPoint x="753.5" y="362" as="sourcePoint" />
            <mxPoint x="736.5" y="412" as="targetPoint" />
            <Array as="points">
              <mxPoint x="773.5" y="372" />
            </Array>
          </mxGeometry>
        </mxCell>
        <mxCell id="EkCQNFjqUWMNqkZWDKo--15" value="" style="endArrow=classic;html=1;rounded=0;exitX=0.5;exitY=1;exitDx=0;exitDy=0;entryX=0.5;entryY=0;entryDx=0;entryDy=0;" edge="1" parent="1" source="EkCQNFjqUWMNqkZWDKo--8" target="EkCQNFjqUWMNqkZWDKo--12">
          <mxGeometry width="50" height="50" relative="1" as="geometry">
            <mxPoint x="763.5" y="372" as="sourcePoint" />
            <mxPoint x="746.5" y="422" as="targetPoint" />
            <Array as="points">
              <mxPoint x="844.5" y="366" />
            </Array>
          </mxGeometry>
        </mxCell>
        <mxCell id="EkCQNFjqUWMNqkZWDKo--16" value="&lt;font style=&quot;font-size: 8px;&quot;&gt;FoodFields&lt;/font&gt;" style="rounded=1;whiteSpace=wrap;html=1;fontSize=8;movable=1;resizable=1;rotatable=1;deletable=1;editable=1;locked=0;connectable=1;" vertex="1" parent="1">
          <mxGeometry x="686.5" y="400" width="50" height="20" as="geometry" />
        </mxCell>
      </root>
    </mxGraphModel>
  </diagram>
</mxfile>
